<?xml version="1.0" encoding="UTF-8"?>
<svg width="112px" height="146px" viewBox="0 0 112 146" version="1.1" xmlns="http://www.w3.org/2000/svg" xmlns:xlink="http://www.w3.org/1999/xlink">
    <title>Slice</title>
    <g id="Page-1" stroke="none" stroke-width="1" fill="none" fill-rule="evenodd">
        <g id="Group-7" transform="translate(5.7529, 7.7115)">
            <g id="Group" transform="translate(0, 0)">
                <path d="M33.1841371,4.51736726 C38.0036925,8.29660951 42.519933,12.0417042 46.7328586,15.7526513 C41.8843655,20.1763497 37.4634473,24.55422 33.4659202,28.8850614 C31.0223055,27.4693171 28.4887483,26.0674345 25.8666288,24.6793516 C27.9340145,18.233868 30.3728859,11.5129398 33.1841371,4.51736726 Z" id="Combined-Shape" fill="#D10F7F"></path>
                <path d="M66.2621447,4.51736726 C69.0735416,11.5133023 71.5125201,18.2345645 73.57908,24.6811537 C64.5877436,29.4395287 56.6386579,34.3610215 49.7221207,39.4367173 C45.8052976,36.5608622 41.5549572,33.7345105 36.9715831,30.9591214 C45.0105985,22.3389116 54.7748053,13.5251356 66.2621447,4.51736726 Z" id="Combined-Shape" fill="#ED55AC"></path>
                <path d="M2.12276914,17.8481323 C19.8857838,25.4269577 34.6486765,33.4577585 46.4114475,41.9405344 C35.6773952,50.302716 27.6887079,59.0723627 22.4073965,68.2141157 C14.312255,82.2265223 12.1233171,94.4733107 13.422996,104.498738 C13.6969764,106.61216 14.1253964,108.631955 14.6896894,110.554706 L14.3373513,110.026772 C13.4692334,108.708464 12.6148542,107.324406 11.7760614,105.872487 C0.592163624,86.5135581 -2.62560113,57.1721069 2.12276914,17.8481323 Z" id="Combined-Shape" fill="#B4087F"></path>
                <path d="M65.390604,9.27992243 C41.5991754,40.9742274 29.7004205,68.0000165 29.6943393,90.3572896 C29.6852241,123.893199 48.6589727,137.027907 65.3558702,137.02337 C82.0527678,137.01883 101.033662,123.873806 101.042783,90.3378959 C101.04886,67.9806228 89.1648006,40.9612983 65.390604,9.27992243 Z" id="petal-right" fill="#FE86BF" transform="translate(65.3686, 73.1516) rotate(30) translate(-65.3686, -73.1516)"></path>
            </g>
            <g id="Group-5-Copy" transform="translate(50.2471, 37.2885)" fill="#FFFFFF" fill-rule="nonzero">
                <path d="M20.7039741,15.2960217 C22.5180301,17.1100722 22.5180301,20.0512199 20.7039741,21.8652631 C18.8899326,23.6793209 15.9487843,23.6793209 14.1347356,21.8652631 C12.3206795,20.0512199 12.3206795,17.1100722 14.1347356,15.2960217 C15.9487843,13.4819713 18.8899326,13.4819713 20.7039741,15.2960217" id="Fill-1"></path>
                <path d="M10.9034465,25.0965507 C13.3977759,27.5908614 13.3977759,31.6349451 10.9034465,34.1292557 C8.40913204,36.6235814 4.36505587,36.6235814 1.87074145,34.1292557 C-0.623580483,31.6349451 -0.623580483,27.5908614 1.87074145,25.0965507 C4.36505587,22.602225 8.40913204,22.602225 10.9034465,25.0965507" id="Fill-4"></path>
                <path d="M39.7948218,0.850342452 C40.9286078,1.98411597 40.9286078,3.82233359 39.7948218,4.95611532 C38.6610441,6.08989704 36.8228269,6.08989704 35.6890491,4.95611532 C34.5552632,3.82233359 34.5552632,1.98411597 35.6890491,0.850342452 C36.8228269,-0.283447484 38.6610441,-0.283447484 39.7948218,0.850342452" id="Fill-9"></path>
                <path d="M31.4957222,7.98814989 C32.8562646,9.34867975 32.8562646,11.554539 31.4957222,12.9150759 C30.1351868,14.2756199 27.9293293,14.2756199 26.5687939,12.9150759 C25.2082515,11.554539 25.2082515,9.34867975 26.5687939,7.98814989 C27.9293293,6.62760595 30.1351868,6.62760595 31.4957222,7.98814989" id="Fill-10"></path>
            </g>
        </g>
    </g>
</svg>